<svg xmlns="http://www.w3.org/2000/svg" width="16" height="16"><path style="line-height:normal;text-indent:0;text-align:start;text-decoration-line:none;text-decoration-style:solid;text-decoration-color:#000;text-transform:none;block-progression:tb;isolation:auto;mix-blend-mode:normal" d="M8 0C6.347 0 5 1.347 5 3v5c0 1.653 1.347 3 3 3s3-1.347 3-3V3c0-1.653-1.347-3-3-3zm0 1c1.117 0 2 .883 2 2v5c0 1.117-.883 2-2 2s-2-.883-2-2V3c0-1.117.883-2 2-2zM3 8.152c0 2.513 1.985 4.538 4.5 4.784V15h-2v1h5v-1h-2v-2.064c2.515-.246 4.5-2.271 4.5-4.784h-1c0 2.122-1.765 3.832-4 3.832-2.235 0-4-1.71-4-3.832H3z" color="#000" font-family="sans-serif" font-weight="400" overflow="visible"/></svg>