<svg xmlns="http://www.w3.org/2000/svg" width="48" height="48"><path d="M26 48h-4c-1.654 0-3-1.346-3-3v-3.724a17.852 17.852 0 0 1-3.681-1.527l-2.634 2.635c-1.134 1.134-3.109 1.132-4.243 0l-2.829-2.828c-.567-.566-.879-1.32-.879-2.121s.312-1.555.879-2.121l2.635-2.636a17.738 17.738 0 0 1-1.525-3.679H3c-1.654 0-3-1.346-3-3v-4c0-.802.312-1.555.878-2.121A2.984 2.984 0 0 1 3 18.999h3.724c.37-1.278.88-2.511 1.526-3.679l-2.634-2.635a3.002 3.002 0 0 1 0-4.242l2.828-2.829c1.133-1.132 3.109-1.134 4.243 0l2.635 2.635A17.843 17.843 0 0 1 19 6.724V3c0-1.654 1.346-3 3-3h4c1.654 0 3 1.346 3 3v3.724c1.28.37 2.512.881 3.678 1.525l2.635-2.635c1.134-1.132 3.109-1.134 4.243 0l2.829 2.828c.567.566.879 1.32.879 2.121s-.312 1.555-.879 2.121l-2.634 2.635a17.763 17.763 0 0 1 1.526 3.68H45c1.654 0 3 1.346 3 3v4c0 .802-.312 1.555-.878 2.121s-1.32.879-2.122.879h-3.724a17.85 17.85 0 0 1-1.526 3.68l2.634 2.635a3.002 3.002 0 0 1 0 4.242l-2.828 2.829c-1.134 1.133-3.109 1.133-4.243 0L32.68 39.75a17.855 17.855 0 0 1-3.679 1.526V45A3.005 3.005 0 0 1 26 48zM15.157 37.498c.179 0 .36.048.521.146a15.877 15.877 0 0 0 4.557 1.891 1 1 0 0 1 .765.972V45c0 .552.449 1 1 1h4c.551 0 1-.448 1-1v-4.493a1 1 0 0 1 .765-.972 15.876 15.876 0 0 0 4.556-1.89c.396-.241.902-.18 1.229.146l3.178 3.179c.375.374 1.039.376 1.415 0l2.828-2.829a1 1 0 0 0 0-1.414l-3.179-3.179a1 1 0 0 1-.146-1.229 15.86 15.86 0 0 0 1.889-4.556 1 1 0 0 1 .972-.766H45a.996.996 0 0 0 1-.998v-4c0-.552-.449-1-1-1h-4.493a.999.999 0 0 1-.972-.766 15.85 15.85 0 0 0-1.889-4.556 1 1 0 0 1 .146-1.229l3.179-3.179c.186-.187.293-.444.293-.707s-.107-.521-.293-.707l-2.829-2.828a1.027 1.027 0 0 0-1.415 0l-3.179 3.179a.995.995 0 0 1-1.229.146 15.864 15.864 0 0 0-4.554-1.889.997.997 0 0 1-.765-.97V3c0-.552-.449-1-1-1h-4c-.551 0-1 .448-1 1v4.493a1 1 0 0 1-.765.972 15.873 15.873 0 0 0-4.556 1.889.998.998 0 0 1-1.228-.146l-3.179-3.179a1.027 1.027 0 0 0-1.415 0L7.03 9.857a1 1 0 0 0 0 1.414l3.179 3.179a1 1 0 0 1 .146 1.229 15.856 15.856 0 0 0-1.889 4.555 1 1 0 0 1-.972.766H3a.996.996 0 0 0-1 .999v4c0 .552.449 1 1 1h4.493c.462 0 .864.316.972.766a15.866 15.866 0 0 0 1.889 4.555 1 1 0 0 1-.146 1.229l-3.179 3.18c-.186.187-.293.444-.293.707s.107.521.293.707l2.829 2.828a1.027 1.027 0 0 0 1.415 0l3.178-3.179a.99.99 0 0 1 .706-.294z"/><path d="M24 34c-5.514 0-10-4.486-10-10s4.486-10 10-10 10 4.486 10 10-4.485 10-10 10zm0-18c-4.411 0-8 3.589-8 8s3.589 8 8 8 8-3.589 8-8-3.588-8-8-8z"/></svg>